PathFileType	4	(X/Y/Z)	C:/Users/opensim2020/Desktop/walking_exp_matlab/subject02_walking13_straight_02.trc	
DataRate	CameraRate	NumFrames	NumMarkers	Units	OrigDataRate	OrigDataStartFrame	OrigNumFrames	
100.00	100.00	6	41	mm	100.00	866	125	
Frame#	Time	LFHD			RFHD			LBHD			RBHD			C7			T10			CLAV			STRN			RBAK			LSHO			LUPA			LELB			LFRM			LWRA			LWRB			LFIN			RSHO			RUPA			RELB			RFRM			RWRA			RWRB			RFIN			LASI			RASI			LPSI			RPSI			LTHI			LKNE			LTIB			LANK			LHEE			LTOE			RTHI			RKNE			RTIB			RANK			RHEE			RTOE			*39			*40			
		X1	Y1	Z1	X2	Y2	Z2	X3	Y3	Z3	X4	Y4	Z4	X5	Y5	Z5	X6	Y6	Z6	X7	Y7	Z7	X8	Y8	Z8	X9	Y9	Z9	X10	Y10	Z10	X11	Y11	Z11	X12	Y12	Z12	X13	Y13	Z13	X14	Y14	Z14	X15	Y15	Z15	X16	Y16	Z16	X17	Y17	Z17	X18	Y18	Z18	X19	Y19	Z19	X20	Y20	Z20	X21	Y21	Z21	X22	Y22	Z22	X23	Y23	Z23	X24	Y24	Z24	X25	Y25	Z25	X26	Y26	Z26	X27	Y27	Z27	X28	Y28	Z28	X29	Y29	Z29	X30	Y30	Z30	X31	Y31	Z31	X32	Y32	Z32	X33	Y33	Z33	X34	Y34	Z34	X35	Y35	Z35	X36	Y36	Z36	X37	Y37	Z37	X38	Y38	Z38	X39	Y39	Z39	X40	Y40	Z40	X41	Y41	Z41	

1	0.000	1408.36755	943.30847	1741.15063	1267.25989	956.88385	1715.48547	1430.31775	1079.20850	1679.98022	1291.57886	1104.61865	1654.70935	1359.24463	1151.89990	1535.31934	1356.62439	1205.25220	1257.65601	1379.65674	1015.22516	1464.48022	1380.30273	962.04736	1293.82715	1297.19824	1209.08533	1356.13745	1541.44397	1094.32886	1513.32947	1645.74817	1101.56726	1321.75269	1677.66663	1095.50647	1184.54712	1706.05640	1073.96143	1056.73181	1685.08008	1013.34674	932.20032	1724.44458	1053.42847	937.05945	1734.60498	1026.74133	877.00928	1179.50635	1068.92285	1493.51318	1093.96265	1088.19385	1302.90613	1074.64026	1062.29333	1156.42627	1075.42822	1009.33246	1044.97656	1121.06689	943.72729	934.59003	1079.58179	979.22180	918.17590	1094.00391	930.19849	865.57098	1520.48474	1004.21753	999.44458	1269.96716	974.76398	982.39368	1415.46167	1199.59595	1046.22839	1300.84387	1192.00171	1039.26221	1570.24695	1092.87549	688.06494	1540.66650	1130.47156	487.29132	1537.45422	1201.09412	304.67593	1506.79956	1210.46094	79.97187	1452.69739	1240.41138	52.25969	1542.35107	1058.64771	38.21998	1197.53918	974.91113	679.26526	1235.83374	924.16876	487.99219	1241.03674	1037.81274	342.11508	1285.79614	1138.22644	181.30066	1348.27710	1186.71643	142.34151	1260.42700	1029.70459	72.00121	1322.01917	1045.23767	1811.29736	-3357.34839	2845.85327	1034.37952 
2	0.010	1411.32056	931.03906	1740.57117	1270.58508	944.90991	1715.15369	1433.87598	1067.01233	1679.56616	1295.28174	1093.00134	1654.28125	1363.14783	1140.02197	1534.91443	1360.52771	1193.71301	1257.37097	1383.36230	1003.45624	1464.05579	1383.78809	950.30762	1293.25720	1301.39185	1197.82739	1355.97156	1545.26013	1082.19043	1513.19348	1651.53174	1086.41504	1322.93066	1685.37061	1076.00317	1186.07910	1715.24036	1049.75818	1059.39063	1696.23145	983.62164	937.45721	1734.79626	1024.72534	940.90906	1746.23914	996.13397	882.32190	1183.08557	1057.58984	1492.76819	1097.06384	1079.13367	1302.60803	1077.63574	1055.67053	1155.73975	1078.66052	1004.93890	1043.41821	1124.68030	942.65686	930.86444	1081.60706	977.15833	916.03918	1097.62524	930.60925	861.38660	1524.39148	995.13165	997.86694	1274.39380	964.01117	981.86523	1417.64709	1189.44055	1045.96948	1302.96436	1181.36865	1039.79309	1571.50378	1085.99854	686.60931	1541.40527	1125.62000	486.41452	1537.79602	1197.92847	304.50806	1506.44702	1209.79578	80.10938	1452.25476	1240.08643	52.56813	1542.44482	1058.51831	38.27668	1200.44006	960.43488	680.93726	1240.76563	907.35803	489.42142	1247.93872	1013.13812	336.85107	1295.02490	1103.94824	171.06839	1358.13550	1149.33606	129.73587	1269.24255	989.11084	68.46191	1325.36865	1033.30652	1810.81763	-3357.34741	2845.96973	1034.23682 
3	0.020	1414.50708	918.91187	1739.99609	1273.31702	933.27515	1714.03857	1437.27063	1054.79163	1678.98669	1298.74683	1081.04333	1653.60767	1366.89185	1128.04712	1534.26294	1364.02942	1182.12500	1256.89014	1386.74536	991.52606	1463.28723	1387.10779	938.53589	1292.36560	1305.23389	1186.28162	1355.51819	1548.79688	1069.94116	1512.72290	1656.79822	1071.21594	1323.70288	1693.23975	1056.78381	1187.83875	1724.33264	1025.77161	1062.40320	1706.90491	954.07074	942.99652	1744.80176	996.22162	945.02527	1757.16150	965.48389	887.73413	1186.54077	1046.21436	1491.78296	1100.51392	1069.52649	1302.12549	1080.65625	1048.97314	1154.99524	1081.38745	1000.51489	1041.49817	1128.04675	941.53241	927.16571	1083.94592	975.19940	913.82147	1101.04333	930.92322	857.34656	1528.06519	985.54828	996.10828	1278.55908	953.47400	980.82660	1419.80298	1179.13403	1045.62402	1305.02136	1170.64746	1040.19287	1572.66846	1079.01111	685.17731	1542.18298	1120.62927	485.53836	1538.08203	1195.05310	304.43823	1506.17554	1209.33618	80.38170	1451.70020	1239.64111	52.83730	1542.42834	1058.39917	38.12457	1203.39636	946.36755	682.46875	1245.48865	891.37787	490.64157	1254.75720	988.58899	331.59091	1303.58398	1069.41516	161.17390	1367.72913	1110.79297	117.64368	1277.38184	948.30884	65.82465	1328.67993	1021.29858	1810.16895			 
4	0.030	1417.24792	906.56372	1739.02625	1276.51685	921.44733	1713.27246	1440.67957	1042.52502	1678.28650	1302.13635	1069.21167	1652.78479	1370.44666	1115.99072	1533.45044	1367.25415	1170.50793	1256.25549	1389.99548	979.49701	1462.27502	1390.17090	926.66632	1291.13049	1309.03918	1174.69727	1354.82703	1552.01208	1057.57800	1512.00391	1661.80945	1056.14124	1324.30188	1700.47119	1037.64661	1189.37939	1732.89075	1002.00409	1065.38879	1717.81116	924.74500	949.31116	1754.42542	967.96216	949.42535	1767.63257	935.12567	893.48389	1189.84900	1034.74268	1490.64307	1103.62561	1060.66174	1301.59595	1083.61243	1042.17847	1154.15991	1084.53845	996.37372	1039.87500	1131.33862	940.39709	923.62378	1086.70850	973.36273	911.50427	1104.05774	931.15472	853.57092	1531.67139	977.04901	994.18512	1282.07471	942.21216	979.59631	1421.93811	1168.69385	1045.11938	1307.03589	1159.73853	1040.40149	1574.21509	1071.83838	683.81061	1542.99951	1115.74487	484.63733	1538.02515	1192.26953	304.32693	1505.60657	1208.79565	80.35970	1451.41650	1239.55188	53.43469	1542.41797	1058.16516	38.05400	1206.46460	932.44684	683.88824	1249.83472	875.99365	491.04712	1261.29102	964.17230	326.34637	1312.08508	1033.39429	151.41602	1376.25110	1071.86841	105.89953	1284.90247	907.22797	63.75566	1331.81677	1009.23871	1809.36169	-3357.00610	2845.88135	1034.46082 
5	0.040	1420.05042	894.29285	1737.97827	1279.46350	909.31409	1712.38367	1443.81848	1030.17334	1677.34119	1305.27380	1057.23328	1651.80859	1373.91663	1103.77539	1532.41284	1370.19653	1158.76550	1255.43066	1393.06836	967.39941	1461.05066	1393.45081	916.79681	1289.39404	1312.65137	1163.03516	1354.01538	1555.37988	1045.30396	1511.15552	1666.59924	1041.11682	1324.70337	1707.40906	1018.73712	1190.91687	1741.18359	978.45294	1068.56677	1728.08264	895.99689	956.06262	1763.62317	939.99493	954.14423	1777.58215	905.10016	899.65594	1193.06213	1023.02429	1489.41162	1106.70471	1051.44604	1300.97705	1086.53503	1035.33105	1153.29553	1087.29504	991.81152	1037.96533	1134.03052	939.07764	920.06055	1088.93713	971.65424	909.26453	1106.57983	931.26184	850.08563	1534.91882	967.37488	992.22308	1285.67932	931.48309	978.31073	1424.05493	1158.04358	1044.43347	1309.08533	1148.66626	1040.26343	1575.60938	1064.60779	682.52319	1543.84814	1110.93286	483.84732	1538.18970	1189.77771	304.51935	1505.47607	1208.53040	80.80281	1451.05359	1239.27344	53.96570	1542.45361	1058.07117	38.04932	1209.28210	919.01221	684.69653	1254.25195	861.27588	491.22833	1267.40454	939.89020	321.11703	1319.75171	997.16443	142.24272	1385.58044	1031.42639	95.07429	1291.82214	865.81287	62.27360	1334.81958	997.02527	1808.30396			 
6	0.050	1422.99023	882.06854	1736.88000	1282.14661	897.48755	1710.98083	1447.16443	1017.85718	1676.31323	1308.57129	1045.22119	1650.61462	1377.16931	1091.45447	1531.29089	1373.04089	1147.05078	1254.42273	1396.05859	955.22852	1459.70154	1396.59485	903.16553	1288.39258	1315.96594	1150.98730	1352.96252	1558.49304	1032.82568	1510.10303	1671.01782	1026.21399	1324.85913	1713.78589	999.97253	1192.21680	1748.83789	955.20599	1071.75769	1737.72522	867.86475	962.99878	1772.33264	912.39801	959.11127	1787.19629	875.52362	906.24609	1196.37244	1011.44415	1488.13977	1109.89673	1042.82288	1300.18982	1089.32251	1028.45837	1152.33252	1090.03857	987.97498	1036.18457	1136.71069	938.18219	917.06927	1091.01294	970.07385	907.09753	1108.65979	931.29376	846.84955	1537.86804	957.26770	989.97388	1288.57727	920.47516	976.51764	1426.10693	1147.26672	1043.49744	1311.14063	1137.51697	1039.73584	1577.05237	1057.11584	681.25946	1544.66736	1106.08789	482.95755	1538.46802	1187.26001	304.82782	1505.18066	1208.00220	81.10609	1450.66431	1238.87915	54.49111	1542.50562	1057.99036	38.03752	1211.99487	906.04504	685.16821	1258.65918	847.41431	491.03046	1273.20178	915.75665	315.88943	1327.39392	960.54889	133.59926	1393.22034	991.50372	84.77966	1298.48657	824.52319	61.91885	1337.67505	984.84943	1807.09595	-3356.81714	2845.97852	1034.09888 
